<svg width="25" height="24" viewBox="0 0 25 24" fill="none" xmlns="http://www.w3.org/2000/svg">
<rect width="24" height="24" transform="translate(0.650009)" fill="black"/>
<path d="M21.9307 18.424C21.5828 19.2275 21.1711 19.9672 20.6941 20.6472C20.0439 21.5743 19.5115 22.216 19.1012 22.5724C18.4651 23.1573 17.7837 23.4568 17.054 23.4739C16.5301 23.4739 15.8983 23.3248 15.1629 23.0224C14.4251 22.7214 13.747 22.5724 13.127 22.5724C12.4768 22.5724 11.7794 22.7214 11.0335 23.0224C10.2865 23.3248 9.68467 23.4824 9.22454 23.498C8.52476 23.5278 7.82726 23.2198 7.13103 22.5724C6.68666 22.1848 6.13085 21.5204 5.465 20.5791C4.75061 19.5739 4.16327 18.4084 3.70314 17.0795C3.21036 15.6442 2.96333 14.2543 2.96333 12.9087C2.96333 11.3673 3.2964 10.0379 3.96352 8.92385C4.48782 8.02901 5.18532 7.32313 6.0583 6.80494C6.93128 6.28674 7.87454 6.02268 8.89034 6.00578C9.44615 6.00578 10.175 6.17771 11.0808 6.5156C11.984 6.85463 12.564 7.02656 12.8182 7.02656C13.0083 7.02656 13.6526 6.82552 14.7448 6.42474C15.7776 6.05306 16.6493 5.89916 17.3635 5.95979C19.2985 6.11595 20.7523 6.87876 21.7191 8.25304C19.9885 9.30164 19.1324 10.7703 19.1494 12.6544C19.1651 14.122 19.6975 15.3432 20.7438 16.3129C21.218 16.7629 21.7475 17.1107 22.3367 17.3578C22.2089 17.7283 22.074 18.0832 21.9307 18.424ZM17.4926 0.960138C17.4926 2.1104 17.0724 3.1844 16.2348 4.17848C15.2239 5.36024 14.0013 6.04312 12.6754 5.93537C12.6585 5.79737 12.6487 5.65213 12.6487 5.49952C12.6487 4.39527 13.1294 3.2135 13.9831 2.24725C14.4093 1.75801 14.9514 1.35123 15.6087 1.02672C16.2646 0.70706 16.885 0.53028 17.4685 0.500008C17.4855 0.65378 17.4926 0.807561 17.4926 0.960123V0.960138Z" fill="white"/>
</svg>
