<svg width="25" height="24" viewBox="0 0 25 24" fill="none" xmlns="http://www.w3.org/2000/svg">
<g clip-path="url(#clip0_162_69)">
<rect width="24" height="24" transform="translate(0.330002)" fill="#1877F2"/>
<path d="M23.83 12.0698C23.83 5.71857 18.6813 0.569849 12.33 0.569849C5.97872 0.569849 0.830002 5.71857 0.830002 12.0698C0.830002 17.8098 5.03539 22.5674 10.5331 23.4301V15.3941H7.6132V12.0698H10.5331V9.53626C10.5331 6.65407 12.25 5.06204 14.8768 5.06204C16.135 5.06204 17.4511 5.28665 17.4511 5.28665V8.11672H16.001C14.5724 8.11672 14.1269 9.00319 14.1269 9.91263V12.0698H17.3163L16.8065 15.3941H14.1269V23.4301C19.6246 22.5674 23.83 17.8098 23.83 12.0698Z" fill="white"/>
</g>
<defs>
<clipPath id="clip0_162_69">
<rect width="24" height="24" fill="white" transform="translate(0.330002)"/>
</clipPath>
</defs>
</svg>
